<svg width="503.501" height="72.8" viewBox="0 0 503.501 72.8" xmlns="http://www.w3.org/2000/svg"><g id="svgGroup" stroke-linecap="round" fill-rule="evenodd" font-size="9pt" stroke="#eee" stroke-width="0.25mm" fill="#eeeeee" style="stroke:#eee;stroke-width:0.25mm;fill:#eee"><path d="M 331.9 1.4 L 351.3 1.4 L 351.3 71.4 L 335 71.4 L 304.1 34.1 L 304.1 71.4 L 284.7 71.4 L 284.7 1.4 L 301 1.4 L 331.9 38.7 L 331.9 1.4 Z M 0 65.1 L 6.5 50.5 A 38.844 38.844 0 0 0 12.961 53.906 A 48.356 48.356 0 0 0 17.4 55.5 A 42.598 42.598 0 0 0 26.871 57.302 A 38.411 38.411 0 0 0 29.6 57.4 Q 41 57.4 41 51.7 A 4.316 4.316 0 0 0 39.247 48.13 A 7.179 7.179 0 0 0 37.75 47.25 A 24.751 24.751 0 0 0 35.878 46.516 Q 32.7 45.4 27.3 44.2 A 138.019 138.019 0 0 1 21.741 42.89 Q 17.413 41.769 14.1 40.55 Q 8.8 38.6 5 34.3 Q 1.2 30 1.2 22.7 Q 1.2 16.3 4.7 11.15 A 20.87 20.87 0 0 1 10.247 5.672 A 28.919 28.919 0 0 1 15.15 3 A 34.062 34.062 0 0 1 22.226 0.872 Q 25.623 0.218 29.535 0.054 A 63.849 63.849 0 0 1 32.2 0 Q 39.1 0 45.8 1.55 A 46.212 46.212 0 0 1 52.741 3.716 A 36.859 36.859 0 0 1 57.6 6.1 L 51.5 20.8 A 48.789 48.789 0 0 0 42.865 17.109 A 36.025 36.025 0 0 0 32.1 15.4 A 31.633 31.633 0 0 0 29.113 15.531 Q 26.157 15.812 24.308 16.699 A 7.253 7.253 0 0 0 23.5 17.15 Q 20.8 18.9 20.8 21.7 Q 20.8 24.5 24 25.9 Q 26.441 26.968 31.15 28.094 A 122.325 122.325 0 0 0 34.3 28.8 Q 40.266 30.068 44.702 31.474 A 62.1 62.1 0 0 1 47.55 32.45 Q 52.8 34.4 56.65 38.65 A 14.255 14.255 0 0 1 59.865 44.772 Q 60.421 46.927 60.49 49.466 A 26.82 26.82 0 0 1 60.5 50.2 Q 60.5 56.5 57 61.6 A 20.926 20.926 0 0 1 51.697 66.873 A 29.544 29.544 0 0 1 46.5 69.75 Q 39.5 72.8 29.5 72.8 Q 21 72.8 13 70.7 Q 6.523 69 2.013 66.382 A 28.135 28.135 0 0 1 0 65.1 Z M 443 65.1 L 449.5 50.5 A 38.844 38.844 0 0 0 455.961 53.906 A 48.356 48.356 0 0 0 460.4 55.5 A 42.598 42.598 0 0 0 469.871 57.302 A 38.411 38.411 0 0 0 472.6 57.4 Q 484 57.4 484 51.7 A 4.316 4.316 0 0 0 482.247 48.13 A 7.179 7.179 0 0 0 480.75 47.25 A 24.751 24.751 0 0 0 478.878 46.516 Q 475.7 45.4 470.3 44.2 A 138.019 138.019 0 0 1 464.741 42.89 Q 460.413 41.769 457.1 40.55 Q 451.8 38.6 448 34.3 Q 444.2 30 444.2 22.7 Q 444.2 16.3 447.7 11.15 A 20.87 20.87 0 0 1 453.247 5.672 A 28.919 28.919 0 0 1 458.15 3 A 34.062 34.062 0 0 1 465.226 0.872 Q 468.623 0.218 472.535 0.054 A 63.849 63.849 0 0 1 475.2 0 Q 482.1 0 488.8 1.55 A 46.212 46.212 0 0 1 495.741 3.716 A 36.859 36.859 0 0 1 500.6 6.1 L 494.5 20.8 A 48.789 48.789 0 0 0 485.865 17.109 A 36.025 36.025 0 0 0 475.1 15.4 A 31.633 31.633 0 0 0 472.113 15.531 Q 469.157 15.812 467.308 16.699 A 7.253 7.253 0 0 0 466.5 17.15 Q 463.8 18.9 463.8 21.7 Q 463.8 24.5 467 25.9 Q 469.441 26.968 474.15 28.094 A 122.325 122.325 0 0 0 477.3 28.8 Q 483.266 30.068 487.702 31.474 A 62.1 62.1 0 0 1 490.55 32.45 Q 495.8 34.4 499.65 38.65 A 14.255 14.255 0 0 1 502.865 44.772 Q 503.421 46.927 503.49 49.466 A 26.82 26.82 0 0 1 503.5 50.2 Q 503.5 56.5 500 61.6 A 20.926 20.926 0 0 1 494.697 66.873 A 29.544 29.544 0 0 1 489.5 69.75 Q 482.5 72.8 472.5 72.8 Q 464 72.8 456 70.7 Q 449.523 69 445.013 66.382 A 28.135 28.135 0 0 1 443 65.1 Z M 175.4 71.4 L 162.7 52.8 L 151.9 52.8 L 151.9 71.4 L 132.1 71.4 L 132.1 1.4 L 164.1 1.4 A 48.435 48.435 0 0 1 171.934 2.003 Q 176.496 2.751 180.322 4.427 A 30.343 30.343 0 0 1 180.6 4.55 A 26.488 26.488 0 0 1 187.299 8.803 A 22.997 22.997 0 0 1 191.4 13.55 Q 195.2 19.4 195.2 27.3 A 27.428 27.428 0 0 1 194.326 34.361 A 22.331 22.331 0 0 1 191.65 40.55 Q 188.1 46.2 181.5 49.4 L 196.6 71.4 L 175.4 71.4 Z M 258.5 71.4 L 253 57.8 L 223.4 57.8 L 217.9 71.4 L 197.7 71.4 L 228.6 1.4 L 248.1 1.4 L 279.1 71.4 L 258.5 71.4 Z M 83.5 71.4 L 83.5 17.1 L 62 17.1 L 62 1.4 L 124.7 1.4 L 124.7 17.1 L 103.3 17.1 L 103.3 71.4 L 83.5 71.4 Z M 365.3 71.4 L 365.3 1.4 L 398.4 1.4 Q 409.9 1.4 418.8 5.7 A 33.54 33.54 0 0 1 428.856 12.998 A 31.495 31.495 0 0 1 432.6 17.9 A 32.513 32.513 0 0 1 437.154 30.959 A 41.648 41.648 0 0 1 437.5 36.4 A 38.668 38.668 0 0 1 436.285 46.289 A 31.445 31.445 0 0 1 432.6 54.9 Q 427.7 62.8 418.8 67.1 A 42.812 42.812 0 0 1 405.999 70.892 A 55.031 55.031 0 0 1 398.4 71.4 L 365.3 71.4 Z M 385.1 55.6 L 397.6 55.6 A 25.794 25.794 0 0 0 403.851 54.883 A 18.225 18.225 0 0 0 412.05 50.5 A 16.749 16.749 0 0 0 417.02 41.4 A 24.73 24.73 0 0 0 417.5 36.4 A 23.889 23.889 0 0 0 416.804 30.465 A 16.541 16.541 0 0 0 412.05 22.3 A 18.467 18.467 0 0 0 402.878 17.698 A 26.642 26.642 0 0 0 397.6 17.2 L 385.1 17.2 L 385.1 55.6 Z M 162.9 17 L 151.9 17 L 151.9 37.5 L 162.9 37.5 Q 169 37.5 172.1 34.85 A 8.611 8.611 0 0 0 174.968 29.811 A 12.935 12.935 0 0 0 175.2 27.3 A 12.407 12.407 0 0 0 174.817 24.127 A 8.656 8.656 0 0 0 172.1 19.7 Q 169.699 17.608 165.497 17.137 A 23.327 23.327 0 0 0 162.9 17 Z M 229.2 43.2 L 247.2 43.2 L 238.2 20.8 L 229.2 43.2 Z" vector-effect="non-scaling-stroke"/></g></svg>